<?xml version="1.0" encoding="UTF-8" standalone="no" ?>
<!DOCTYPE svg PUBLIC "-//W3C//DTD SVG 1.1//EN" "http://www.w3.org/Graphics/SVG/1.1/DTD/svg11.dtd">
<svg xmlns="http://www.w3.org/2000/svg" xmlns:xlink="http://www.w3.org/1999/xlink" version="1.1" width="1080" height="1080" viewBox="0 0 1080 1080" xml:space="preserve">
<desc>Created with Fabric.js 5.2.4</desc>
<defs>
</defs>
<g transform="matrix(1 0 0 1 540 540)" id="9155b8c5-39ba-4e04-9ad5-571afec53c3d"  >
<rect style="stroke: none; stroke-width: 1; stroke-dasharray: none; stroke-linecap: butt; stroke-dashoffset: 0; stroke-linejoin: miter; stroke-miterlimit: 4; fill: rgb(255,255,255); fill-rule: nonzero; opacity: 1; visibility: hidden;" vector-effect="non-scaling-stroke"  x="-540" y="-540" rx="0" ry="0" width="1080" height="1080" />
</g>
<g transform="matrix(1 0 0 1 540 540)" id="016aab5e-05bb-45a7-91e0-dd9ca79c0f15"  >
</g>
<g transform="matrix(1.32 0 0 2.07 520.05 540)" style="" id="6dda83a1-2f3a-4761-95a4-f181816cc26f"  >
		<text xml:space="preserve" font-family="Raleway" font-size="105" font-style="normal" font-weight="900" style="stroke: none; stroke-width: 1; stroke-dasharray: none; stroke-linecap: butt; stroke-dashoffset: 0; stroke-linejoin: miter; stroke-miterlimit: 4; fill: rgb(0,0,0); fill-rule: nonzero; opacity: 1; white-space: pre;" ></text>
</g>
<g transform="matrix(1.75 0 0 1.75 490.11 540)" style="" id="cab7fe10-1f65-462b-8b60-2c00b983a258"  >
		<text xml:space="preserve" font-family="Raleway" font-size="105" font-style="normal" font-weight="900" style="stroke: none; stroke-width: 1; stroke-dasharray: none; stroke-linecap: butt; stroke-dashoffset: 0; stroke-linejoin: miter; stroke-miterlimit: 4; fill: rgb(0,0,0); fill-rule: nonzero; opacity: 1; white-space: pre;" ><tspan x="-159.18" y="32.98" style="white-space: pre; ">AP    </tspan><tspan x="70.77" y="32.98" style="fill: rgb(229,25,25); ">S</tspan><tspan x="135.55" y="32.98" style="white-space: pre; "> </tspan></text>
</g>
<g transform="matrix(2.66 0 0 2.66 514.09 540)"  >
<g style="" vector-effect="non-scaling-stroke"   >
		<g transform="matrix(1 0 0 1 9.81 -11.42)"  >
<polygon style="stroke: none; stroke-width: 1; stroke-dasharray: none; stroke-linecap: butt; stroke-dashoffset: 0; stroke-linejoin: miter; stroke-miterlimit: 4; fill: rgb(15,48,222); fill-rule: nonzero; opacity: 1;" vector-effect="non-scaling-stroke"  points="13.2,12.39 -20.64,12.39 -24.78,-12.39 24.78,-12.39 " />
</g>
		<g transform="matrix(1 0 0 1 -2.46 -9.22)"  >
<path style="stroke: none; stroke-width: 1; stroke-dasharray: none; stroke-linecap: butt; stroke-dashoffset: 0; stroke-linejoin: miter; stroke-miterlimit: 4; fill: rgb(15,48,222); fill-rule: nonzero; opacity: 1;" vector-effect="non-scaling-stroke"  transform=" translate(-45.13, -40.78)" d="M 14.243 21.477 C 13.037 20.745 12.669 19.225 13.351 18.019 C 14.084000000000001 16.813 15.654 16.395 16.86 17.127 C 22.674 20.585 26.655 26.713 29.38 34.729 C 31.791 41.8 33.202 50.339 34.094 59.717 L 74.74 59.717 C 76.104 59.717 77.256 60.867 77.256 62.282 C 77.256 63.696999999999996 76.105 64.79599999999999 74.74 64.79599999999999 L 32 64.79599999999999 C 30.585 64.89999999999999 29.38 63.90599999999999 29.275 62.49199999999999 C 28.438 52.53899999999999 27.023 43.57999999999999 24.561999999999998 36.352999999999994 C 22.205 29.491 18.956 24.252 14.243 21.477 z" stroke-linecap="round" />
</g>
		<g transform="matrix(1 0 0 1 -13.61 26.06)"  >
<circle style="stroke: none; stroke-width: 1; stroke-dasharray: none; stroke-linecap: butt; stroke-dashoffset: 0; stroke-linejoin: miter; stroke-miterlimit: 4; fill: rgb(15,48,222); fill-rule: nonzero; opacity: 1;" vector-effect="non-scaling-stroke"  cx="0" cy="0" r="7.176" />
</g>
		<g transform="matrix(1 0 0 1 21.91 26.06)"  >
<circle style="stroke: none; stroke-width: 1; stroke-dasharray: none; stroke-linecap: butt; stroke-dashoffset: 0; stroke-linejoin: miter; stroke-miterlimit: 4; fill: rgb(15,48,222); fill-rule: nonzero; opacity: 1;" vector-effect="non-scaling-stroke"  cx="0" cy="0" r="7.176" />
</g>
</g>
</g>
</svg>